<svg xmlns="http://www.w3.org/2000/svg" viewBox="0 0 6 7" width="6" height="7">
	<style>
		tspan { white-space:pre }
		.shp0 { fill: #ffffff } 
	</style>
	<g id="Menu">
		<g id="shield (1)">
			<path id="Path 68" class="shp0" d="M1.61 2.28C1.64 2.57 1.69 2.98 1.82 3.4C2.09 4.31 2.57 4.95 3.25 5.31C3.93 4.95 4.41 4.31 4.68 3.4C4.8 2.98 4.86 2.57 4.89 2.28L3.25 1.46L1.61 2.28Z" />
			<path id="Path 69" fill-rule="evenodd" class="shp0" d="M6 1.71C6 1.75 6.04 2.64 5.74 3.68C5.56 4.29 5.3 4.82 4.95 5.27C4.53 5.83 3.97 6.24 3.31 6.49C3.29 6.5 3.27 6.5 3.25 6.5C3.23 6.5 3.21 6.5 3.18 6.49C2.53 6.24 1.97 5.83 1.54 5.27C1.2 4.82 0.94 4.29 0.76 3.68C0.46 2.64 0.5 1.75 0.5 1.71C0.51 1.64 0.54 1.59 0.6 1.56L3.17 0.27C3.22 0.24 3.28 0.24 3.33 0.27L5.9 1.56C5.95 1.59 5.99 1.64 6 1.71ZM3.33 5.68C4.14 5.28 4.71 4.55 5.03 3.51C5.18 2.99 5.24 2.5 5.26 2.18C5.26 2.11 5.22 2.04 5.16 2.01L3.33 1.09C3.28 1.06 3.22 1.06 3.17 1.09L1.34 2.01C1.28 2.04 1.24 2.11 1.24 2.18C1.26 2.5 1.32 2.99 1.47 3.51C1.79 4.55 2.36 5.28 3.17 5.68C3.19 5.7 3.22 5.7 3.25 5.7C3.28 5.7 3.31 5.7 3.33 5.68Z" />
		</g>
	</g>
</svg>