<svg xmlns="http://www.w3.org/2000/svg" viewBox="0 0 6 7" width="6" height="7">
	<style>
		tspan { white-space:pre }
		.shp0 { fill: #ffffff } 
	</style>
	<g id="Menu">
		<g id="reading-book">
			<path id="Ellipse 3" class="shp0" d="M3.37 2.82C2.8 2.82 2.34 2.36 2.34 1.79C2.34 1.21 2.8 0.75 3.37 0.75C3.95 0.75 4.41 1.21 4.41 1.79C4.41 2.36 3.95 2.82 3.37 2.82Z" />
			<path id="Path 74" class="shp0" d="M4.14 2.97C3.92 3.11 3.66 3.19 3.37 3.19C3.09 3.19 2.83 3.11 2.61 2.97C2.37 3.06 2.14 3.2 1.95 3.37L3.37 3.91L4.8 3.37C4.6 3.2 4.38 3.06 4.14 2.97Z" />
			<path id="Path 75" class="shp0" d="M5.57 4.53L5.45 4.53C5.35 4.53 5.27 4.62 5.27 4.72L5.27 5.21C5.27 5.31 5.35 5.39 5.45 5.39L5.57 5.39C5.81 5.39 6 5.2 6 4.96C6 4.73 5.81 4.53 5.57 4.53Z" />
			<path id="Path 76" class="shp0" d="M1.32 3.61C1.27 3.64 1.24 3.7 1.24 3.76L1.24 4.17L1.3 4.17C1.6 4.17 1.85 4.41 1.85 4.72L1.85 5.21C1.85 5.51 1.6 5.75 1.3 5.75L1.24 5.75L1.24 6.14C1.24 6.22 1.29 6.29 1.36 6.31L3.19 7L3.19 4.23L1.49 3.59C1.43 3.57 1.37 3.58 1.32 3.61Z" />
			<path id="Path 77" class="shp0" d="M4.9 5.21L4.9 4.72C4.9 4.41 5.15 4.17 5.45 4.17L5.51 4.17L5.51 3.76C5.51 3.7 5.48 3.64 5.43 3.61C5.38 3.58 5.32 3.57 5.26 3.59L3.56 4.23L3.56 7L5.39 6.31C5.46 6.29 5.51 6.22 5.51 6.14L5.51 5.75L5.45 5.75C5.15 5.75 4.9 5.51 4.9 5.21Z" />
			<path id="Path 78" class="shp0" d="M1.48 5.21L1.48 4.72C1.48 4.62 1.4 4.53 1.3 4.53L1.18 4.53C0.94 4.53 0.75 4.73 0.75 4.96C0.75 5.2 0.94 5.39 1.18 5.39L1.3 5.39C1.4 5.39 1.48 5.31 1.48 5.21Z" />
		</g>
	</g>
</svg>