<svg xmlns="http://www.w3.org/2000/svg" width="80" height="80" viewBox="0 0 80 80">
  <g id="Group_766" data-name="Group 766" transform="translate(-1476 -421)">
    <rect id="Rectangle_577" data-name="Rectangle 577" width="80" height="80" rx="40" transform="translate(1476 421)" fill="rgba(255,85,85,0.2)"/>
    <rect id="Rectangle_578" data-name="Rectangle 578" width="60" height="60" rx="30" transform="translate(1486 431)" fill="rgba(255,85,85,0.2)"/>
    <g id="flame" transform="translate(1449.162 446.93)">
      <g id="Flame-2" data-name="Flame" transform="translate(55.838 0.001)">
        <path id="Path_92" data-name="Path 92" d="M70.76,26.941c1.019-2.039,1.7-6.635,0-8.132-1.564.235-1.8,1.925-2.828,1.694-2.591-.582-1.724-5.79-1.011-8.419-3.487,3.186-5.814,10.475-4.521,15A.825.825,0,0,1,61.15,28c-.217-.145-5.312-3.6-5.312-8.927,0-8.723,9.89-9.1,9.89-18.242A.825.825,0,0,1,67.082.195c3.952,3.315,11.143,11.284,10.74,18.614-.2,3.634-2.174,6.724-5.867,9.187A.825.825,0,0,1,70.76,26.941Z" transform="translate(-55.838 -0.001)" fill="#f55"/>
      </g>
    </g>
  </g>
</svg>
