<svg id="CAKE" xmlns="http://www.w3.org/2000/svg" width="49.531" height="50" viewBox="0 0 49.531 50">
  <path id="Path_210" data-name="Path 210" d="M8.906,7.813a6.546,6.546,0,1,1,12.969-1.25v8.125c.938,0,1.875-.156,2.813-.156a15.159,15.159,0,0,1,2.656.156V6.563A6.6,6.6,0,0,1,33.906,0a6.758,6.758,0,0,1,6.563,7.813L38.75,17.344C44.844,20,49.531,24.688,49.531,30.469v3.594c0,4.844-3.125,8.906-7.656,11.563C37.344,48.438,31.406,50,24.688,50S12.031,48.438,7.5,45.625C3.125,42.969,0,38.906,0,34.063V30.469C0,24.688,4.531,20,10.625,17.344Zm27.5,10.781,2.031-11.25a4.618,4.618,0,0,0-4.531-5.469,4.535,4.535,0,0,0-4.531,4.531V16.719a8.909,8.909,0,0,0-2.031-.156c-.937,0-1.719-.156-2.656-.156a16.982,16.982,0,0,0-2.812.156c-.625,0-1.406.156-2.031.156V6.563a4.505,4.505,0,1,0-8.906.938l2.031,11.25C6.406,21.25,2.031,25.625,2.031,30.625v3.594c0,7.656,10.156,13.906,22.656,13.906s22.656-6.25,22.656-13.906V30.625C47.5,25.469,43.125,21.094,36.406,18.594Z" fill="#633001" fill-rule="evenodd"/>
  <path id="Path_211" data-name="Path 211" d="M46.713,23.094C46.713,30.75,36.556,37,24.056,37S1.4,30.75,1.4,23.094V19.5H46.869v3.594Z" transform="translate(0.787 10.969)" fill="#fedc90"/>
  <path id="Path_212" data-name="Path 212" d="M10.15,6.769a4.505,4.505,0,1,1,8.906-.938V16.144a47.32,47.32,0,0,1,4.844-.312c1.563,0,3.125.156,4.688.312V5.831A4.535,4.535,0,0,1,33.119,1.3,4.7,4.7,0,0,1,37.65,6.769l-2.031,11.25c6.563,2.5,11.094,6.875,11.094,11.875,0,7.656-10.156,13.906-22.656,13.906S1.4,37.55,1.4,29.894c0-5,4.375-9.375,10.938-11.875Z" transform="translate(0.788 0.731)" fill="#d1884f" fill-rule="evenodd"/>
  <path id="Path_213" data-name="Path 213" d="M13.6,20.25c0,2.031-1.094,3.75-2.5,3.75s-2.5-1.719-2.5-3.75,1.094-3.75,2.5-3.75S13.6,18.219,13.6,20.25Z" transform="translate(4.838 9.281)" fill="#633001"/>
  <path id="Path_214" data-name="Path 214" d="M24.7,20.25c0,2.031-1.094,3.75-2.5,3.75s-2.5-1.719-2.5-3.75,1.094-3.75,2.5-3.75S24.7,18.219,24.7,20.25Z" transform="translate(11.081 9.281)" fill="#633001"/>
</svg>
