<svg xmlns="http://www.w3.org/2000/svg" viewBox="0 0 5 7" width="5" height="7">
	<style>
		tspan { white-space:pre }
		.shp0 { fill: #ffffff } 
	</style>
	<g id="Menu">
		<g id="google-docs">
			<path id="Path 70" fill-rule="evenodd" class="shp0" d="M0 5.7L0 0.55C0 0.25 0.25 0 0.55 0L2.92 0L2.92 1.28C2.92 1.58 3.17 1.83 3.47 1.83L4.75 1.83L4.75 5.7C4.75 6 4.5 6.25 4.2 6.25L0.55 6.25C0.25 6.25 0 6 0 5.7ZM1.1 2.76C1.1 2.86 1.18 2.94 1.28 2.94L3.47 2.94C3.57 2.94 3.65 2.86 3.65 2.76C3.65 2.66 3.57 2.58 3.47 2.58L1.28 2.58C1.18 2.58 1.1 2.66 1.1 2.76ZM1.1 3.49C1.1 3.59 1.18 3.67 1.28 3.67L3.47 3.67C3.57 3.67 3.65 3.59 3.65 3.49C3.65 3.39 3.57 3.31 3.47 3.31L1.28 3.31C1.18 3.31 1.1 3.39 1.1 3.49ZM1.1 4.22C1.1 4.32 1.18 4.41 1.28 4.41L3.47 4.41C3.57 4.41 3.65 4.32 3.65 4.22C3.65 4.12 3.57 4.04 3.47 4.04L1.28 4.04C1.18 4.04 1.1 4.12 1.1 4.22ZM1.1 4.96C1.1 5.06 1.18 5.14 1.28 5.14L2.74 5.14C2.84 5.14 2.92 5.06 2.92 4.96C2.92 4.85 2.84 4.77 2.74 4.77L1.28 4.77C1.18 4.77 1.1 4.85 1.1 4.96Z" />
			<path id="Path 71" class="shp0" d="M3.47 1.46L4.64 1.46L3.29 0.11L3.29 1.28C3.29 1.38 3.37 1.46 3.47 1.46Z" />
		</g>
	</g>
</svg>