<svg xmlns="http://www.w3.org/2000/svg" width="30" height="30" viewBox="0 0 30 30"><defs><style>.a{fill:#1c2936;}.b{fill:#55ff76;}</style></defs><g transform="translate(-1096 -406)"><rect class="a" width="30" height="30" rx="15" transform="translate(1096 406)"/><g transform="translate(1101.89 413)"><g transform="translate(1.374)"><path class="b" d="M17.117.934a.339.339,0,0,0-.371.074L15.332,2.422A7.9,7.9,0,0,0,9.622,0,7.98,7.98,0,0,0,1.891,5.994a.34.34,0,0,0,.329.425H4.387A.34.34,0,0,0,4.706,6.2,5.22,5.22,0,0,1,9.619,2.749a5.179,5.179,0,0,1,3.77,1.616L11.953,5.8a.34.34,0,0,0,.24.581h4.793a.34.34,0,0,0,.34-.34V1.248A.341.341,0,0,0,17.117.934Z" transform="translate(-1.794)"/><path class="b" d="M16.48,56.328H14.314a.34.34,0,0,0-.319.223A5.22,5.22,0,0,1,9.082,60a5.179,5.179,0,0,1-3.77-1.616l1.436-1.436a.34.34,0,0,0-.24-.581H1.714a.34.34,0,0,0-.34.34V61.5a.34.34,0,0,0,.581.24l1.414-1.414a7.9,7.9,0,0,0,5.709,2.422,7.98,7.98,0,0,0,7.731-5.994.34.34,0,0,0-.329-.425Z" transform="translate(-1.374 -46.748)"/></g></g></g></svg>