<svg xmlns="http://www.w3.org/2000/svg" viewBox="0 0 7 7" width="7" height="7">
	<style>
		tspan { white-space:pre }
		.shp0 { fill: #ff5555 } 
	</style>
	<g id="Menu">
		<path id="home (1)" class="shp0" d="M6.33 3.22C6.33 3.22 6.33 3.22 6.33 3.22L3.78 0.67C3.67 0.56 3.53 0.5 3.37 0.5C3.22 0.5 3.08 0.56 2.97 0.67L0.42 3.22C0.42 3.22 0.42 3.22 0.42 3.22C0.19 3.44 0.19 3.81 0.42 4.03C0.52 4.13 0.66 4.19 0.8 4.2C0.81 4.2 0.81 4.2 0.82 4.2L0.92 4.2L0.92 6.08C0.92 6.45 1.22 6.75 1.59 6.75L2.59 6.75C2.69 6.75 2.77 6.67 2.77 6.57L2.77 5.1C2.77 4.93 2.91 4.79 3.08 4.79L3.67 4.79C3.84 4.79 3.98 4.93 3.98 5.1L3.98 6.57C3.98 6.67 4.06 6.75 4.16 6.75L5.16 6.75C5.53 6.75 5.83 6.45 5.83 6.08L5.83 4.2L5.92 4.2C6.08 4.2 6.22 4.14 6.33 4.03C6.56 3.81 6.56 3.44 6.33 3.22Z" />
	</g>
</svg>