<svg width="40" height="40" viewBox="0 0 40 40" fill="none" xmlns="http://www.w3.org/2000/svg">
<g clip-path="url(#clip0)">
<path d="M38.75 12.5009H1.25007C0.560046 12.5009 0.000106514 11.9409 0.000106514 11.2509C0.000106514 10.5609 0.56015 10.001 1.25007 10.001H38.75C39.4401 10.001 40 10.561 40 11.2509C40 11.9409 39.44 12.5009 38.75 12.5009Z" fill="#2B3141"/>
<path d="M1.25007 18.75H38.75C39.4401 18.75 40 19.31 40 20C40 20.6899 39.44 21.2499 38.75 21.2499H1.25007C0.560046 21.2499 0.000106514 20.6899 0.000106514 20C0.000106514 19.31 0.560046 18.75 1.25007 18.75Z" fill="#2B3141"/>
<path d="M1.25006 27.501H26.25C26.9401 27.501 27.5 28.061 27.5 28.7509C27.5 29.441 26.94 30.0009 26.25 30.0009H1.25006C0.560032 30.0009 9.18672e-05 29.4409 9.18672e-05 28.7509C-1.2037e-05 28.0609 0.560032 27.501 1.25006 27.501Z" fill="#2B3141"/>
</g>
<defs>
<clipPath id="clip0">
<rect width="40" height="40" fill="white" transform="matrix(-1 0 0 1 40 0)"/>
</clipPath>
</defs>
</svg>
