<svg xmlns="http://www.w3.org/2000/svg" width="80" height="80" viewBox="0 0 80 80"><defs><style>.a,.b{fill:#9d55ff;}.a{opacity:0.2;}</style></defs><g transform="translate(-1046 -1226)"><rect class="a" width="80" height="80" rx="40" transform="translate(1046 1226)"/><rect class="a" width="60" height="60" rx="30" transform="translate(1056 1236)"/><g transform="translate(1068.744 1251.432)"><path class="b" d="M10.365,23.623l.671,1.819a.174.174,0,0,0,.327,0l.671-1.819a5.363,5.363,0,0,1,3.176-3.176l1.819-.671a.174.174,0,0,0,0-.327l-1.819-.671A5.363,5.363,0,0,1,12.034,15.6l-.671-1.819a.174.174,0,0,0-.327,0L10.365,15.6a5.363,5.363,0,0,1-3.176,3.176l-1.819.671a.174.174,0,0,0,0,.327l1.819.671A5.363,5.363,0,0,1,10.365,23.623Z" transform="translate(0 -12.619)"/><path class="b" d="M98.539,136.408l-2.229-.822a6.572,6.572,0,0,1-3.892-3.892l-.822-2.229a.213.213,0,0,0-.4,0l-.822,2.229a6.572,6.572,0,0,1-3.892,3.892l-2.229.822a.213.213,0,0,0,0,.4l2.229.822a6.572,6.572,0,0,1,3.892,3.892l.822,2.229a.213.213,0,0,0,.4,0l.822-2.229a6.572,6.572,0,0,1,3.892-3.892l2.229-.822a.213.213,0,0,0,0-.4Z" transform="translate(-69.449 -119.096)"/><path class="b" d="M34.905,221.09l-1.085-.4a3.2,3.2,0,0,1-1.894-1.894l-.4-1.085a.1.1,0,0,0-.195,0l-.4,1.085a3.2,3.2,0,0,1-1.894,1.894l-1.084.4a.1.1,0,0,0,0,.195l1.085.4a3.2,3.2,0,0,1,1.894,1.894l.4,1.085a.1.1,0,0,0,.195,0l.4-1.085a3.2,3.2,0,0,1,1.894-1.894l1.085-.4a.1.1,0,0,0,0-.195Z" transform="translate(-20.309 -195.681)"/></g></g></svg>