<svg xmlns="http://www.w3.org/2000/svg" xmlns:xlink="http://www.w3.org/1999/xlink" width="237" height="69" viewBox="0 0 237 69"><defs><style>.a{stroke:rgba(255,255,255,0.15);}.b,.c{fill:#fff;}.b{font-size:16px;font-family:Montserrat-Bold, Montserrat;font-weight:700;}.c,.e{opacity:0.4;}.d,.e{fill:url(#c);}.f{stroke:none;}.g{fill:none;}.h{filter:url(#a);}</style><filter id="a" x="0" y="0" width="237" height="69" filterUnits="userSpaceOnUse"><feOffset dy="3" input="SourceAlpha"/><feGaussianBlur stdDeviation="5" result="b"/><feFlood flood-opacity="0.2"/><feComposite operator="in" in2="b"/><feComposite in="SourceGraphic"/></filter><linearGradient id="c" x1="0.5" x2="0.5" y2="1" gradientUnits="objectBoundingBox"><stop offset="0" stop-color="#55ff76"/><stop offset="1" stop-color="#27ac40"/></linearGradient></defs><g transform="translate(-85 -1148)"><g class="h" transform="matrix(1, 0, 0, 1, 85, 1148)"><g class="a" transform="translate(15 12)"><rect class="f" width="207" height="39" rx="19.5"/><rect class="g" x="0.5" y="0.5" width="206" height="38" rx="19"/></g></g><text class="b" transform="translate(265 1185)"><tspan x="-113.856" y="0">View Markets</tspan></text><path class="c" d="M5.49,9.9,0,4.41,1.441,2.9,5.49,6.949,9.539,2.9,10.98,4.41Z" transform="translate(271.893 1185.059) rotate(-90)"/><g transform="translate(-917 1044)"><rect class="d" width="4" height="12.667" rx="2" transform="translate(1042 130.333)"/><rect class="e" width="4" height="9.333" rx="2" transform="translate(1048 133.667)"/><rect class="d" width="4" height="16" rx="2" transform="translate(1054 127)"/></g></g></svg>