<?xml version="1.0" encoding="utf-8"?>
<!-- Generator: Adobe Illustrator 16.0.0, SVG Export Plug-In . SVG Version: 6.00 Build 0)  -->
<!DOCTYPE svg PUBLIC "-//W3C//DTD SVG 1.1//EN" "http://www.w3.org/Graphics/SVG/1.1/DTD/svg11.dtd">
<svg version="1.1" id="Layer_1" xmlns="http://www.w3.org/2000/svg" xmlns:xlink="http://www.w3.org/1999/xlink" x="0px" y="0px"
	 width="753.166px" height="500px" viewBox="0 0 753.166 500" enable-background="new 0 0 753.166 500" xml:space="preserve">
<g id="Group_258" transform="translate(-1248 -2060)">
	<path id="Rectangle_611" fill="#55B7FF" d="M1289.667,2060H1748c23.012,0,41.667,18.655,41.667,41.667l0,0
		c0,23.012-18.655,41.667-41.667,41.667h-458.333c-23.012,0-41.667-18.655-41.667-41.667l0,0
		C1248,2078.655,1266.655,2060,1289.667,2060z"/>
	<path id="Rectangle_611_1_" fill="#55B7FF" d="M1289.667,2268.334H1748c23.012,0,41.667,18.655,41.667,41.666l0,0
		c0,23.012-18.655,41.667-41.667,41.667h-458.333c-23.012,0-41.667-18.655-41.667-41.667l0,0
		C1248,2286.989,1266.655,2268.334,1289.667,2268.334z"/>
	<path id="Rectangle_612" fill="#55B7FF" d="M1289.667,2268.333H1623c23.012,0,41.667,18.655,41.667,41.667l0,0
		c0,23.012-18.655,41.667-41.667,41.667h-333.333c-23.012,0-41.667-18.654-41.667-41.667l0,0
		C1248,2286.988,1266.655,2268.333,1289.667,2268.333z"/>
	<path id="Rectangle_613" fill="#55B7FF" d="M1289.667,2476.667H1748c23.012,0,41.667,18.654,41.667,41.666l0,0
		c0,23.013-18.655,41.667-41.667,41.667h-458.333c-23.012,0-41.667-18.654-41.667-41.667l0,0
		C1248,2495.321,1266.655,2476.667,1289.667,2476.667z"/>
</g>
</svg>
