<svg xmlns="http://www.w3.org/2000/svg" xmlns:xlink="http://www.w3.org/1999/xlink" width="400" height="400" viewBox="0 0 400 400">
  <defs>
    <linearGradient id="linear-gradient" x1="0.084" y1="1.024" x2="0.881" y2="-0.034" gradientUnits="objectBoundingBox">
      <stop offset="0.08" stop-color="#9945ff"/>
      <stop offset="0.3" stop-color="#8752f3"/>
      <stop offset="0.5" stop-color="#5497d5"/>
      <stop offset="0.6" stop-color="#43b4ca"/>
      <stop offset="0.72" stop-color="#28e0b9"/>
      <stop offset="0.97" stop-color="#19fb9b"/>
    </linearGradient>
  </defs>
  <g id="Group_1415" data-name="Group 1415" transform="translate(5821 5530)">
    <rect id="Rectangle_3721" data-name="Rectangle 3721" width="400" height="400" rx="200" transform="translate(-5821 -5530)"/>
    <path id="solanaLogoMark" d="M258.661,178.606,215.74,223.449a9.969,9.969,0,0,1-3.316,2.282,10.191,10.191,0,0,1-3.975.8H4.983a5.08,5.08,0,0,1-2.732-.795,4.889,4.889,0,0,1-1.837-2.125,4.739,4.739,0,0,1-.341-2.758,4.807,4.807,0,0,1,1.268-2.489l42.953-44.843a9.968,9.968,0,0,1,3.306-2.277,10.192,10.192,0,0,1,3.964-.808H255.017a5.083,5.083,0,0,1,2.733.795,4.909,4.909,0,0,1,1.838,2.125,4.745,4.745,0,0,1,.34,2.758A4.812,4.812,0,0,1,258.661,178.606Zm-42.921-90.3a9.97,9.97,0,0,0-3.316-2.282,10.2,10.2,0,0,0-3.975-.8H4.983a5.078,5.078,0,0,0-2.732.795A4.89,4.89,0,0,0,.413,88.139,4.74,4.74,0,0,0,.072,90.9,4.809,4.809,0,0,0,1.34,93.386l42.953,44.843a9.972,9.972,0,0,0,3.306,2.277,10.192,10.192,0,0,0,3.964.808H255.017a5.081,5.081,0,0,0,2.733-.795,4.908,4.908,0,0,0,1.838-2.124,4.745,4.745,0,0,0,.34-2.758,4.814,4.814,0,0,0-1.267-2.489ZM4.983,56.094H208.449a10.2,10.2,0,0,0,3.975-.8,9.97,9.97,0,0,0,3.316-2.282L258.661,8.166a4.812,4.812,0,0,0,1.267-2.489,4.745,4.745,0,0,0-.34-2.758A4.908,4.908,0,0,0,257.75.795,5.082,5.082,0,0,0,255.017,0H51.563A10.193,10.193,0,0,0,47.6.808a9.97,9.97,0,0,0-3.306,2.277L1.351,47.928A4.808,4.808,0,0,0,.084,50.414,4.74,4.74,0,0,0,.422,53.17a4.888,4.888,0,0,0,1.833,2.125A5.08,5.08,0,0,0,4.983,56.094Z" transform="translate(-5751 -5443.268)" fill="url(#linear-gradient)"/>
  </g>
</svg>
