<svg xmlns="http://www.w3.org/2000/svg" width="418.974" height="417.818" viewBox="0 0 418.974 417.818">
  <g id="Group_255" data-name="Group 255" transform="translate(-1750.936 -4485.091)">
    <path id="Path_113" data-name="Path 113" d="M150,300A150,150,0,1,0,0,150,150,150,0,0,0,150,300Z" transform="matrix(-0.574, -0.819, 0.819, -0.574, 1924.165, 4902.91)" fill="#55b7ff"/>
    <path id="Path_112" data-name="Path 112" d="M-7.568.064s-31.692,112.2-16.227,152.759S55.2,130.692,79.151,162.238,45.2,297.618,45.2,297.618s39.173-10.81,63.286-32.786c26.073-21.691,43.819-53.964,51.02-80.687,3.552-13.182,3.523-36.137,1.234-53.549-2.373-18.052-4.7-28.839-10.824-41.639-10.471-21.016-26.75-42.416-44.54-56.892C89.383,19.053,72.094,12.384,56.973,6.152,49.8,3.759,36.12.305,24.9-.6A166.018,166.018,0,0,0-7.568.064Z" transform="matrix(-0.574, -0.819, 0.819, -0.574, 1844.945, 4789.773)" fill="#245183"/>
  </g>
</svg>
