<svg xmlns="http://www.w3.org/2000/svg" width="20.398" height="23.998" viewBox="0 0 20.398 23.998"><defs><style>.a{opacity:0.4;}.b{fill:#fff;}</style></defs><g class="a"><path class="b" d="M-18818.646-13598.361l-.457-2.178a1.161,1.161,0,0,1,.457-.525,1.078,1.078,0,0,1,.68,0l4.422,4.25a3.1,3.1,0,0,1,.125.469.768.768,0,0,1-.062.408l-4.309,4.363a1.355,1.355,0,0,1-.8.063.673.673,0,0,1-.465-.586,13.955,13.955,0,0,1,.414-2.1h-5.23a2.339,2.339,0,0,0-.73.443,1.506,1.506,0,0,0-.352.656v5.686a2.254,2.254,0,0,1-1.91,1.959c-1.707.189-1.98-1.3-2.246-1.959s0-7.588,0-7.588a5.245,5.245,0,0,1,.973-2.035,3.6,3.6,0,0,1,1.977-1.268C-18825.674-13598.4-18818.646-13598.361-18818.646-13598.361Z" transform="translate(18829.232 13601.123)"/><path class="b" d="M-18817.879-13588.5l.449,2.178a1.089,1.089,0,0,1-.449.523,1.078,1.078,0,0,1-.68,0l-4.422-4.248a3.084,3.084,0,0,1-.125-.471.8.8,0,0,1,.066-.408l4.313-4.363a1.315,1.315,0,0,1,.8-.061.661.661,0,0,1,.461.586,13.114,13.114,0,0,1-.41,2.1h5.238a2.364,2.364,0,0,0,.723-.445,1.569,1.569,0,0,0,.352-.658v-5.684a2.251,2.251,0,0,1,1.914-1.961,1.978,1.978,0,0,1,2.246,1.961c.105.785,0,7.59,0,7.59a5.245,5.245,0,0,1-.973,2.035,3.6,3.6,0,0,1-1.984,1.264C-18810.852-13588.465-18817.879-13588.5-18817.879-13588.5Z" transform="translate(18827.758 13609.74)"/></g></svg>