<svg xmlns="http://www.w3.org/2000/svg" width="17" height="17" viewBox="0 0 17 17"><defs><style>.a{opacity:1;}.b{fill:#fff;}</style></defs><g class="a" transform="translate(-4.711 -4.712)"><path class="b" d="M8.5,17A8.5,8.5,0,0,1,5.191.668a8.5,8.5,0,0,1,6.617,15.664A8.449,8.449,0,0,1,8.5,17Zm.278-6.469h0l.021.015.011.007.06.042.458.339.095.07,1.265.934a.624.624,0,0,0,.362.142c.2,0,.344-.157.4-.43.415-1.949.829-3.9,1.18-5.557.011-.053.023-.106.035-.161a4.466,4.466,0,0,0,.1-.545.455.455,0,0,0-.1-.359.347.347,0,0,0-.265-.109.586.586,0,0,0-.211.043L9.659,5.94,8.99,6.2l-2.216.855-.446.172c-.554.213-1.126.434-1.688.656a1.168,1.168,0,0,0-.338.211.188.188,0,0,0-.07.152.208.208,0,0,0,.1.155.981.981,0,0,0,.256.118c.62.2,1.189.375,1.738.542a.179.179,0,0,1,.134.134c.144.449.3.917.429,1.329l.014.044c.1.3.2.612.3.919a.2.2,0,0,0,.205.159h.029A.507.507,0,0,0,7.8,11.48c.222-.218.456-.446.663-.646l.311-.3Zm-1.361.562h0l-.274-.841-.1-.316-.066-.2,0-.015c-.065-.2-.139-.431-.215-.65a.122.122,0,0,1,.062-.174C7.7,8.34,8.592,7.775,9.458,7.23l.088-.055.2-.127,1.146-.722a.769.769,0,0,1,.2-.1.138.138,0,0,1,.036,0,.421.421,0,0,1,.079.011h0c.018,0,.036.007.054.009-.008.014-.015.03-.022.045v0a.274.274,0,0,1-.058.094c-.56.509-1.148,1.039-1.621,1.465l-.225.2-.378.341-.07.064-.028.026c-.391.353-.8.717-1.194,1.074a.31.31,0,0,0-.11.223c-.026.318-.056.637-.085.947q-.015.157-.029.314a.207.207,0,0,1-.007.035l0,.017-.01,0-.006,0H7.418Z" transform="translate(4.712 4.712)"/></g></svg>