<svg xmlns="http://www.w3.org/2000/svg" width="25" height="25" viewBox="0 0 25 25">
  <g id="Group_25" data-name="Group 25" transform="translate(-1586 -1026)">
    <circle id="Ellipse_2" data-name="Ellipse 2" cx="12.5" cy="12.5" r="12.5" transform="translate(1586 1026)" fill="#55b7ff"/>
    <path id="Path_52" data-name="Path 52" d="M5.491,11.74l11.57-4.461c.537-.194,1.006.131.832.943h0L15.924,17.5c-.146.658-.537.818-1.084.508l-3-2.211-1.447,1.394a.757.757,0,0,1-.6.3L10,14.435l5.56-5.023c.242-.213-.054-.333-.373-.121L8.317,13.617l-2.962-.924c-.643-.2-.657-.643.136-.953Z" transform="translate(1586.446 1026.553)" fill="#16102f"/>
  </g>
</svg>
