<svg xmlns="http://www.w3.org/2000/svg" width="19.688" height="16" viewBox="0 0 19.688 16"><defs><style>.a{fill:#fff;opacity:1;}</style></defs><path class="a" d="M495.612,532.3A11.415,11.415,0,0,0,507.1,520.81q0-.262-.011-.522a8.213,8.213,0,0,0,2.015-2.092,8.054,8.054,0,0,1-2.32.636,4.054,4.054,0,0,0,1.776-2.234,8.1,8.1,0,0,1-2.565.981,4.043,4.043,0,0,0-6.883,3.684,11.47,11.47,0,0,1-8.326-4.22,4.043,4.043,0,0,0,1.251,5.393,4.009,4.009,0,0,1-1.829-.505c0,.017,0,.034,0,.052a4.04,4.04,0,0,0,3.241,3.96,4.036,4.036,0,0,1-1.824.069,4.044,4.044,0,0,0,3.773,2.805,8.1,8.1,0,0,1-5.017,1.729,8.212,8.212,0,0,1-.964-.056,11.434,11.434,0,0,0,6.192,1.814" transform="translate(-489.42 -516.302)"/></svg>