<svg xmlns="http://www.w3.org/2000/svg" width="8" height="16" viewBox="0 0 8 16">
  <g id="Group_1399" data-name="Group 1399" transform="translate(-1034 -1233)">
    <path id="Polygon_211" data-name="Polygon 211" d="M3.132,1.519a1,1,0,0,1,1.736,0L7.145,5.5A1,1,0,0,1,6.277,7H1.723A1,1,0,0,1,.855,5.5Z" transform="translate(1034 1233)" fill="#fff"/>
    <path id="Polygon_212" data-name="Polygon 212" d="M3.132,1.519a1,1,0,0,1,1.736,0L7.145,5.5A1,1,0,0,1,6.277,7H1.723A1,1,0,0,1,.855,5.5Z" transform="translate(1042 1249) rotate(180)" fill="#fff" opacity="0.4"/>
  </g>
</svg>
