<svg xmlns="http://www.w3.org/2000/svg" width="8" height="16" viewBox="0 0 8 16">
  <g id="Group_1398" data-name="Group 1398" transform="translate(-745 -1233)">
    <path id="Polygon_185" data-name="Polygon 185" d="M3.132,1.519a1,1,0,0,1,1.736,0L7.145,5.5A1,1,0,0,1,6.277,7H1.723A1,1,0,0,1,.855,5.5Z" transform="translate(745 1233)" fill="#fff" opacity="0.4"/>
    <path id="Polygon_186" data-name="Polygon 186" d="M3.132,1.519a1,1,0,0,1,1.736,0L7.145,5.5A1,1,0,0,1,6.277,7H1.723A1,1,0,0,1,.855,5.5Z" transform="translate(753 1249) rotate(180)" fill="#fff"/>
  </g>
</svg>
